<svg version="1.1" id="Layer_1" xmlns="http://www.w3.org/2000/svg" xmlns:xlink="http://www.w3.org/1999/xlink" x="0px" y="0px"
	 width="100%" viewBox="0 0 400 400" enable-background="new 0 0 400 400" xml:space="preserve">
<path fill="#FEFFFF" opacity="1.000000" stroke="none" 
	d="
M263.000000,401.000000 
	C175.333328,401.000000 88.166664,401.000000 1.000000,401.000000 
	C1.000000,267.666656 1.000000,134.333328 1.000000,1.000000 
	C134.333328,1.000000 267.666656,1.000000 401.000000,1.000000 
	C401.000000,134.333328 401.000000,267.666656 401.000000,401.000000 
	C355.166656,401.000000 309.333344,401.000000 263.000000,401.000000 
M216.545517,288.887207 
	C220.279770,287.319519 225.396011,287.551788 226.227173,281.147491 
	C229.008423,277.618744 231.789688,274.089996 235.037659,270.055450 
	C240.134903,260.562195 241.755814,250.221420 241.795502,239.674088 
	C241.936386,202.227493 241.851166,164.780029 241.836090,127.332909 
	C241.835510,125.892395 241.675110,124.451950 241.582611,122.901031 
	C232.503540,122.901031 223.783356,122.901031 214.728790,122.901031 
	C214.728790,125.026634 214.730896,126.830574 214.728485,128.634506 
	C214.677948,166.413345 214.612411,204.192154 214.584351,241.971008 
	C214.575409,254.028763 212.048447,264.990662 201.232941,272.832092 
	C200.919724,272.981750 200.700409,273.218414 199.954514,273.767517 
	C198.482986,274.722626 197.011459,275.677765 195.470734,276.677795 
	C198.201065,281.022766 200.640778,284.905273 203.193405,289.306702 
	C203.449707,289.540222 203.706009,289.773712 204.355408,290.144928 
	C204.355408,290.144928 204.756149,290.258484 204.874161,290.823090 
	C205.029739,291.174072 205.185318,291.525085 204.728760,292.114532 
	C204.807892,292.887604 204.629333,294.162933 205.005966,294.356201 
	C208.849762,296.328430 214.716324,293.212616 215.785812,288.746643 
	C215.785812,288.746643 215.772095,288.727875 216.545517,288.887207 
M287.335754,304.702179 
	C288.571960,303.500519 289.808197,302.298859 291.449493,300.628845 
	C292.463928,299.946594 293.478394,299.264343 295.236206,298.793365 
	C298.449066,296.810303 302.775024,295.923523 302.999603,291.000000 
	C302.999603,291.000000 302.950195,290.961121 303.735352,290.847687 
	C306.162262,287.640350 305.183960,284.543152 303.563751,280.656708 
	C300.167206,283.437439 294.331024,281.930969 294.229401,288.249542 
	C294.229401,288.249542 294.197540,288.294708 293.415955,288.122559 
	C287.992584,291.415009 282.565430,294.701263 277.162231,298.026520 
	C276.978912,298.139343 277.037018,298.644470 276.579041,299.369507 
	C276.051086,299.566162 275.523132,299.762817 274.654816,299.506592 
	C274.115662,300.024841 273.576508,300.543091 272.642792,301.489258 
	C272.100861,301.685120 271.558899,301.881012 270.575684,301.513184 
	C269.016571,301.719910 267.231354,301.503387 265.932404,302.197205 
	C247.821243,311.870361 228.400421,316.956635 208.098495,319.122101 
	C206.993744,319.239929 205.976212,320.175537 204.201462,320.861664 
	C203.475113,320.847229 202.748779,320.832764 201.620300,320.387756 
	C200.739258,320.525604 199.858231,320.663483 198.345734,320.867004 
	C197.926468,320.818329 197.507187,320.769653 196.948441,320.076202 
	C195.599380,319.316528 194.316360,318.121918 192.884949,317.904541 
	C190.985672,317.616058 188.968048,318.063721 187.005798,318.244110 
	C184.668686,318.458954 182.336365,318.725830 179.268570,319.021790 
	C178.543655,318.916565 177.818741,318.811371 176.924210,317.996918 
	C176.638763,317.600739 176.413132,316.926025 176.058929,316.849976 
	C170.199799,315.591797 164.347748,314.254425 158.429611,313.362885 
	C157.457962,313.216553 156.179779,315.104950 155.000000,316.000519 
	C155.000000,316.000519 155.053223,316.042725 154.320099,316.105194 
	C152.858307,318.332336 151.297302,320.552917 154.084000,323.656891 
	C154.721878,324.772186 155.359741,325.887512 156.033630,327.741394 
	C157.436218,328.764282 158.707321,330.368958 160.261703,330.720245 
	C176.193771,334.320892 192.252182,337.138367 208.683136,335.827301 
	C211.526367,335.600433 214.266556,334.082214 217.687469,333.002441 
	C218.121277,332.981415 218.555099,332.960419 219.551758,333.523376 
	C225.049118,334.334137 230.380020,334.576202 234.697556,329.055939 
	C235.121597,328.980927 235.545624,328.905914 236.412094,329.412231 
	C242.135101,327.885773 248.047241,326.843475 253.529938,324.701843 
	C259.454285,322.387695 265.019684,319.124420 270.637482,316.082794 
	C271.674622,315.521210 272.215942,314.043823 273.000000,313.000000 
	C273.000000,313.000000 272.991425,312.985748 273.797668,313.037781 
	C274.626404,312.995087 275.660889,313.257385 276.250275,312.859863 
	C279.874603,310.415253 285.574463,310.446808 286.483643,304.463776 
	C286.483643,304.463776 286.597321,304.356720 287.335754,304.702179 
M212.766846,86.629837 
	C210.851486,92.848228 212.197479,98.428192 217.234055,102.379578 
	C222.761414,106.715981 229.114578,107.230179 235.564453,104.043564 
	C241.309372,101.205246 243.685516,96.458931 243.403992,90.202065 
	C243.133835,84.197678 239.932007,80.256615 234.562302,78.037148 
	C225.958237,74.480789 217.666153,77.551666 212.766846,86.629837 
M153.922226,80.522354 
	C153.922226,133.897293 153.922226,187.272217 153.922226,240.734650 
	C163.669907,240.734650 172.908173,240.734650 182.029266,240.734650 
	C182.029266,183.965759 182.029266,127.479881 182.029266,70.927536 
	C172.546524,70.927536 163.463623,70.927536 154.473770,70.927536 
	C154.241623,71.456131 154.008102,71.745514 154.002167,72.039490 
	C153.951736,74.535194 153.942749,77.031738 153.922226,80.522354 
M227.482300,283.585236 
	C227.482300,283.585236 227.417770,283.476501 227.482300,283.585236 
z"/>
<path fill="#F47514" opacity="1.000000" stroke="none" 
	d="
M197.087921,320.720978 
	C197.507187,320.769653 197.926468,320.818329 199.033234,320.948730 
	C200.487976,320.959747 201.255203,320.889038 202.022430,320.818298 
	C202.748779,320.832764 203.475113,320.847229 204.999359,320.911011 
	C217.625397,318.725830 229.682571,317.296326 241.213242,314.016052 
	C251.451385,311.103455 261.105194,306.136810 271.016937,302.076843 
	C271.558899,301.881012 272.100861,301.685120 273.144287,301.271667 
	C274.095581,300.689209 274.545380,300.324341 274.995178,299.959473 
	C275.523132,299.762817 276.051086,299.566162 277.139099,299.168945 
	C283.198608,295.410522 288.698090,291.852600 294.197540,288.294708 
	C294.197540,288.294708 294.229401,288.249542 294.588715,288.192139 
	C297.474609,287.103668 300.001160,286.072601 302.527740,285.041534 
	C302.668549,287.014740 302.809387,288.987915 302.950195,290.961121 
	C302.950195,290.961121 302.999603,291.000000 302.661713,291.089539 
	C299.713501,293.646759 297.103149,296.114441 294.492828,298.582092 
	C293.478394,299.264343 292.463928,299.946594 290.928833,300.922913 
	C289.137848,302.263550 287.867584,303.310120 286.597321,304.356720 
	C286.597321,304.356720 286.483643,304.463776 286.104401,304.583557 
	C281.480560,307.464142 277.235992,310.224945 272.991425,312.985748 
	C272.991425,312.985748 273.000000,313.000000 272.632446,313.016113 
	C260.166473,318.298431 248.068069,323.564667 235.969666,328.830872 
	C235.545624,328.905914 235.121597,328.980927 234.004608,329.112213 
	C228.537415,330.425446 223.763168,331.682404 218.988907,332.939392 
	C218.555099,332.960419 218.121277,332.981415 216.941772,333.001984 
	C195.654190,335.776062 175.625610,333.399414 155.997620,327.002808 
	C155.359741,325.887512 154.721878,324.772186 154.068115,322.958069 
	C154.385895,320.187042 154.719559,318.114899 155.053223,316.042725 
	C155.053223,316.042725 155.000000,316.000519 155.401245,315.975525 
	C158.057083,315.939331 160.355453,315.640564 162.557388,315.975586 
	C167.428589,316.716644 172.251328,317.776367 177.093826,318.706177 
	C177.818741,318.811371 178.543655,318.916565 179.941437,319.249146 
	C186.105515,319.891357 191.596725,320.306152 197.087921,320.720978 
z"/>
<path fill="#133B75" opacity="1.000000" stroke="none" 
	d="
M212.879593,86.249710 
	C217.666153,77.551666 225.958237,74.480789 234.562302,78.037148 
	C239.932007,80.256615 243.133835,84.197678 243.403992,90.202065 
	C243.685516,96.458931 241.309372,101.205246 235.564453,104.043564 
	C229.114578,107.230179 222.761414,106.715981 217.234055,102.379578 
	C212.197479,98.428192 210.851486,92.848228 212.879593,86.249710 
z"/>
<path fill="#324E77" opacity="1.000000" stroke="none" 
	d="
M201.708389,272.699829 
	C212.048447,264.990662 214.575409,254.028763 214.584351,241.971008 
	C214.612411,204.192154 214.677948,166.413345 214.728485,128.634506 
	C214.730896,126.830574 214.728790,125.026634 214.728790,122.901031 
	C223.783356,122.901031 232.503540,122.901031 241.582611,122.901031 
	C241.675110,124.451950 241.835510,125.892395 241.836090,127.332909 
	C241.851166,164.780029 241.936386,202.227493 241.795502,239.674088 
	C241.755814,250.221420 240.134903,260.562195 234.660004,270.162476 
	C234.282349,270.269470 233.983170,269.988525 234.003662,269.604279 
	C236.029373,261.938202 239.663681,254.679749 239.768585,247.370667 
	C240.339554,207.592072 240.018036,167.800934 240.087051,128.014267 
	C240.092178,125.053726 239.239548,123.754013 236.116714,123.916878 
	C232.298279,124.116035 228.461502,123.961571 224.632645,123.963120 
	C217.004120,123.966217 216.112778,124.700829 216.025711,132.468384 
	C215.895096,144.119949 216.085480,155.775009 215.971207,167.426926 
	C215.687531,196.354309 215.373611,225.281738 214.926987,254.206909 
	C214.799744,262.447876 208.517715,271.327545 201.991943,273.006744 
	C201.898911,272.903076 201.708389,272.699829 201.708389,272.699829 
z"/>
<path fill="#1A3862" opacity="1.000000" stroke="none" 
	d="
M153.921783,80.025192 
	C153.942749,77.031738 153.951736,74.535194 154.002167,72.039490 
	C154.008102,71.745514 154.241623,71.456131 154.473770,70.927536 
	C163.463623,70.927536 172.546524,70.927536 182.029266,70.927536 
	C182.029266,127.479881 182.029266,183.965759 182.029266,240.734650 
	C172.908173,240.734650 163.669907,240.734650 153.922226,240.734650 
	C153.922226,187.272217 153.922226,133.897293 153.921783,80.025192 
M181.003662,219.499802 
	C181.003647,175.855652 181.003906,132.211502 181.003540,88.567360 
	C181.003403,71.589478 181.002350,71.574341 163.855942,72.030426 
	C162.389404,72.069427 160.928925,72.467453 159.472733,72.737015 
	C156.095551,73.362175 154.944412,75.455910 154.968994,78.808716 
	C155.353378,131.239990 155.680130,183.671722 155.961212,236.103653 
	C155.975342,238.736176 156.572037,240.120224 159.563095,240.041473 
	C165.555832,239.883682 171.557236,239.914124 177.551804,240.031830 
	C180.169449,240.083191 181.085617,239.039017 181.032669,236.490585 
	C180.921997,231.162338 181.001984,225.830139 181.003662,219.499802 
z"/>
<path fill="#FCDFBE" opacity="1.000000" stroke="none" 
	d="
M270.796326,301.795013 
	C261.105194,306.136810 251.451385,311.103455 241.213242,314.016052 
	C229.682571,317.296326 217.625397,318.725830 205.357666,320.845428 
	C205.976212,320.175537 206.993744,319.239929 208.098495,319.122101 
	C228.400421,316.956635 247.821243,311.870361 265.932404,302.197205 
	C267.231354,301.503387 269.016571,301.719910 270.796326,301.795013 
z"/>
<path fill="#FCDFBE" opacity="1.000000" stroke="none" 
	d="
M156.015625,327.372101 
	C175.625610,333.399414 195.654190,335.776062 216.625214,333.080994 
	C214.266556,334.082214 211.526367,335.600433 208.683136,335.827301 
	C192.252182,337.138367 176.193771,334.320892 160.261703,330.720245 
	C158.707321,330.368958 157.436218,328.764282 156.015625,327.372101 
z"/>
<path fill="#FCDFBE" opacity="1.000000" stroke="none" 
	d="
M236.190872,329.121552 
	C248.068069,323.564667 260.166473,318.298431 272.625488,313.010681 
	C272.215942,314.043823 271.674622,315.521210 270.637482,316.082794 
	C265.019684,319.124420 259.454285,322.387695 253.529938,324.701843 
	C248.047241,326.843475 242.135101,327.885773 236.190872,329.121552 
z"/>
<path fill="#324E77" opacity="1.000000" stroke="none" 
	d="
M234.426636,270.415344 
	C231.789688,274.089996 229.008423,277.618744 225.723053,281.561157 
	C222.069977,284.225861 218.921036,286.476868 215.772095,288.727875 
	C215.772095,288.727875 215.785812,288.746643 215.443787,288.818481 
	C211.848129,289.885590 208.594498,290.880829 205.340881,291.876068 
	C205.185318,291.525085 205.029739,291.174072 204.911011,290.440765 
	C204.947845,290.058441 205.141083,289.859863 205.517654,289.920410 
	C206.864990,289.837006 207.924728,289.896851 208.792923,289.517883 
	C218.830215,285.136475 227.089157,278.437073 233.983170,269.988525 
	C233.983170,269.988525 234.282349,270.269470 234.426636,270.415344 
z"/>
<path fill="#FCDFBE" opacity="1.000000" stroke="none" 
	d="
M177.009018,318.351532 
	C172.251328,317.776367 167.428589,316.716644 162.557388,315.975586 
	C160.355453,315.640564 158.057083,315.939331 155.422882,316.001740 
	C156.179779,315.104950 157.457962,313.216553 158.429611,313.362885 
	C164.347748,314.254425 170.199799,315.591797 176.058929,316.849976 
	C176.413132,316.926025 176.638763,317.600739 177.009018,318.351532 
z"/>
<path fill="#324E77" opacity="1.000000" stroke="none" 
	d="
M204.851990,290.158447 
	C204.756149,290.258484 204.355408,290.144928 204.131592,289.801575 
	C203.632019,289.234711 203.356262,289.011230 203.080505,288.787750 
	C200.640778,284.905273 198.201065,281.022766 195.470734,276.677795 
	C197.011459,275.677765 198.482986,274.722626 200.375366,273.776489 
	C200.796234,273.785431 201.025574,274.021118 200.957306,274.336975 
	C198.055359,276.842743 198.416763,278.762756 200.667175,281.453369 
	C202.660019,283.836060 203.687454,287.026184 205.141083,289.859863 
	C205.141083,289.859863 204.947845,290.058441 204.851990,290.158447 
z"/>
<path fill="#FCDFBE" opacity="1.000000" stroke="none" 
	d="
M293.806763,288.208618 
	C288.698090,291.852600 283.198608,295.410522 277.340881,298.967590 
	C277.037018,298.644470 276.978912,298.139343 277.162231,298.026520 
	C282.565430,294.701263 287.992584,291.415009 293.806763,288.208618 
z"/>
<path fill="#FCDFBE" opacity="1.000000" stroke="none" 
	d="
M303.342773,290.904419 
	C302.809387,288.987915 302.668549,287.014740 302.527740,285.041534 
	C300.001160,286.072601 297.474609,287.103668 294.616211,288.189331 
	C294.331024,281.930969 300.167206,283.437439 303.563751,280.656708 
	C305.183960,284.543152 306.162262,287.640350 303.342773,290.904419 
z"/>
<path fill="#FCDFBE" opacity="1.000000" stroke="none" 
	d="
M197.018188,320.398590 
	C191.596725,320.306152 186.105515,319.891357 180.308136,319.223328 
	C182.336365,318.725830 184.668686,318.458954 187.005798,318.244110 
	C188.968048,318.063721 190.985672,317.616058 192.884949,317.904541 
	C194.316360,318.121918 195.599380,319.316528 197.018188,320.398590 
z"/>
<path fill="#FCDFBE" opacity="1.000000" stroke="none" 
	d="
M219.270325,333.231384 
	C223.763168,331.682404 228.537415,330.425446 233.699249,329.218872 
	C230.380020,334.576202 225.049118,334.334137 219.270325,333.231384 
z"/>
<path fill="#FCDFBE" opacity="1.000000" stroke="none" 
	d="
M273.394531,313.011780 
	C277.235992,310.224945 281.480560,307.464142 286.042206,304.630737 
	C285.574463,310.446808 279.874603,310.415253 276.250275,312.859863 
	C275.660889,313.257385 274.626404,312.995087 273.394531,313.011780 
z"/>
<path fill="#ECF6FA" opacity="1.000000" stroke="none" 
	d="
M205.034821,291.995300 
	C208.594498,290.880829 211.848129,289.885590 215.446259,288.820679 
	C214.716324,293.212616 208.849762,296.328430 205.005966,294.356201 
	C204.629333,294.162933 204.807892,292.887604 205.034821,291.995300 
z"/>
<path fill="#DBEAF4" opacity="1.000000" stroke="none" 
	d="
M216.158813,288.807556 
	C218.921036,286.476868 222.069977,284.225861 225.542068,281.853210 
	C225.396011,287.551788 220.279770,287.319519 216.158813,288.807556 
z"/>
<path fill="#FCDFBE" opacity="1.000000" stroke="none" 
	d="
M294.864502,298.687744 
	C297.103149,296.114441 299.713501,293.646759 302.640106,291.066956 
	C302.775024,295.923523 298.449066,296.810303 294.864502,298.687744 
z"/>
<path fill="#FCDFBE" opacity="1.000000" stroke="none" 
	d="
M286.966553,304.529449 
	C287.867584,303.310120 289.137848,302.263550 290.726288,301.157104 
	C289.808197,302.298859 288.571960,303.500519 286.966553,304.529449 
z"/>
<path fill="#FCDFBE" opacity="1.000000" stroke="none" 
	d="
M154.686661,316.073975 
	C154.719559,318.114899 154.385895,320.187042 153.957825,322.652161 
	C151.297302,320.552917 152.858307,318.332336 154.686661,316.073975 
z"/>
<path fill="#FCDFBE" opacity="1.000000" stroke="none" 
	d="
M274.825012,299.733032 
	C274.545380,300.324341 274.095581,300.689209 273.341583,301.057709 
	C273.576508,300.543091 274.115662,300.024841 274.825012,299.733032 
z"/>
<path fill="#FCDFBE" opacity="1.000000" stroke="none" 
	d="
M201.821365,320.603027 
	C201.255203,320.889038 200.487976,320.959747 199.348969,320.915894 
	C199.858231,320.663483 200.739258,320.525604 201.821365,320.603027 
z"/>
<path fill="#324E77" opacity="1.000000" stroke="none" 
	d="
M200.685623,273.663757 
	C200.700409,273.218414 200.919724,272.981750 201.470673,272.765961 
	C201.708389,272.699829 201.898911,272.903076 201.842026,273.188019 
	C201.571106,273.709961 201.317917,273.892670 201.025574,274.021118 
	C201.025574,274.021118 200.796234,273.785431 200.685623,273.663757 
z"/>
<path fill="#ECF6FA" opacity="1.000000" stroke="none" 
	d="
M203.136963,289.047241 
	C203.356262,289.011230 203.632019,289.234711 203.935028,289.732727 
	C203.706009,289.773712 203.449707,289.540222 203.136963,289.047241 
z"/>
<path fill="#DBEAF4" opacity="1.000000" stroke="none" 
	d="
M227.450043,283.530884 
	C227.417770,283.476501 227.482300,283.585236 227.450043,283.530884 
z"/>
<path fill="#0E3977" opacity="1.000000" stroke="none" 
	d="
M200.957306,274.336975 
	C201.317917,273.892670 201.571106,273.709961 201.935059,273.291687 
	C208.517715,271.327545 214.799744,262.447876 214.926987,254.206909 
	C215.373611,225.281738 215.687531,196.354309 215.971207,167.426926 
	C216.085480,155.775009 215.895096,144.119949 216.025711,132.468384 
	C216.112778,124.700829 217.004120,123.966217 224.632645,123.963120 
	C228.461502,123.961571 232.298279,124.116035 236.116714,123.916878 
	C239.239548,123.754013 240.092178,125.053726 240.087051,128.014267 
	C240.018036,167.800934 240.339554,207.592072 239.768585,247.370667 
	C239.663681,254.679749 236.029373,261.938202 234.003662,269.604279 
	C227.089157,278.437073 218.830215,285.136475 208.792923,289.517883 
	C207.924728,289.896851 206.864990,289.837006 205.517654,289.920410 
	C203.687454,287.026184 202.660019,283.836060 200.667175,281.453369 
	C198.416763,278.762756 198.055359,276.842743 200.957306,274.336975 
z"/>
<path fill="#0D3876" opacity="1.000000" stroke="none" 
	d="
M181.003662,219.999680 
	C181.001984,225.830139 180.921997,231.162338 181.032669,236.490585 
	C181.085617,239.039017 180.169449,240.083191 177.551804,240.031830 
	C171.557236,239.914124 165.555832,239.883682 159.563095,240.041473 
	C156.572037,240.120224 155.975342,238.736176 155.961212,236.103653 
	C155.680130,183.671722 155.353378,131.239990 154.968994,78.808716 
	C154.944412,75.455910 156.095551,73.362175 159.472733,72.737015 
	C160.928925,72.467453 162.389404,72.069427 163.855942,72.030426 
	C181.002350,71.574341 181.003403,71.589478 181.003540,88.567360 
	C181.003906,132.211502 181.003647,175.855652 181.003662,219.999680 
z"/>
</svg>